<?xml version="1.0" encoding="UTF-8"?>
<!DOCTYPE svg PUBLIC "-//W3C//DTD SVG 1.1//EN" "http://www.w3.org/Graphics/SVG/1.1/DTD/svg11.dtd">
<!-- Creator: CorelDRAW -->
<svg xmlns="http://www.w3.org/2000/svg" xml:space="preserve" width="600mm" height="300mm" version="1.1" style="shape-rendering:geometricPrecision; text-rendering:geometricPrecision; image-rendering:optimizeQuality; fill-rule:evenodd; clip-rule:evenodd"
viewBox="0 0 60000 30000"
 xmlns:xlink="http://www.w3.org/1999/xlink"
 xmlns:xodm="http://www.corel.com/coreldraw/odm/2003">
 <defs>
  <style type="text/css">
   <![CDATA[
    .fil1 {fill:black}
    .fil0 {fill:#27C6D8}
    .fil2 {fill:#27C6D9}
   ]]>
  </style>
 </defs>
 <g id="Camada_x0020_1">
  <metadata id="CorelCorpID_0Corel-Layer"/>
  <path class="fil0" d="M42081.11 17904.76c256.08,0 375.44,3.57 628.72,-47.09 144.86,-28.97 210.2,-47.14 349.3,-93.47 193.36,-64.41 289.69,-115.54 457.16,-206.99l137.88 -83.5c192.5,-127.81 407.11,-306.52 557.51,-485.34 77.17,-91.75 281.97,-351.14 298.85,-423.57l-623.87 -0.49c-47.39,0.94 -37.64,17.81 -79.06,60.22 -14.58,14.93 -17.51,22.82 -32.48,37.97 -47.65,48.19 -92.15,91.51 -139.93,139.72 -15.12,15.26 -19.25,19.35 -36.87,33.04 -15.88,12.33 -22.3,20.83 -37.41,32.5 -57.8,44.66 -91.68,76.57 -158.53,121.12 -29.33,19.54 -51.4,37.79 -82.8,57.02 -75.18,46.04 -286.6,162.18 -376.23,183.06l70.82 -191.36c38.29,-102.41 84.61,-304.16 115.09,-415.1 8.9,-33.52 22.59,-58.19 -4.98,-57.53l-536.31 -0.17c-46.41,199.18 -133.6,470.76 -241.39,649.98 -25.31,42.08 -94.05,154 -148.95,154 -129.09,0 -284.96,-450.56 -327.03,-575.99l-49.29 -177.92c-5.36,-22.43 -4.46,-50.07 -25.67,-50.07l-524.34 0c-20.19,0 -15.58,9.06 -11.89,28.07 2.55,13.12 6.04,28.84 9.57,44.16 39.5,171.66 68.55,268.86 122.47,431l60.46 160.93c-76.56,-17.84 -267.36,-117.94 -336.07,-159.14 -202.89,-121.65 -324.89,-234.75 -489.87,-401.49l-46.21 -52.84c-12.13,-14.34 -33.48,-50.69 -54.17,-50.69l-623.38 0c-30.45,0 -6.89,22.37 15.6,60.14 14.07,23.63 28.4,46.71 42.6,68.09l113.18 160.64c9.11,12.17 16.64,20.65 25.94,32.32 95.27,119.58 152.18,176.86 264.38,289.08 292.15,292.18 741.3,533.55 1135.76,641.15 100.38,27.38 267.57,62.38 371.54,71.23 69.72,5.94 132.08,17.31 209.9,17.31z"/>
  <path class="fil0" d="M39884.73 13896.52l658.33 0c63.4,-94.68 154.58,-174.78 237.48,-251.9 9.22,-8.58 13.84,-14.99 23.28,-23.33 104.5,-92.33 261.46,-202.93 376.18,-264.67 24.84,-13.36 40.48,-20.05 64.56,-34.48 49.72,-29.79 169.68,-71.7 207.35,-89.78 -6.62,28.39 -18.96,49.96 -28.46,76.41 -34.54,96.07 -51.07,134.05 -82.92,243.33 -32.63,111.95 -58.89,225.05 -86.7,344.42l553.46 0 30.35 -115.3c22.03,-86.74 79.48,-259.41 113.31,-335.29 34.79,-78.04 150.67,-348.6 247.55,-350.08 107.4,-1.65 261.23,383.88 283.92,451.79 13.15,39.35 24.27,73.18 37.84,113.64l67.71 235.24 553.46 0c-47.88,-205.54 -88.58,-387.96 -167.28,-584.27 -9.7,-24.2 -25.45,-56.92 -30.8,-79.89l135.91 56.35c82.17,41.44 106.86,48.8 195.07,102.05 100.19,60.49 197.33,127.49 285.27,204.11 51.3,44.69 167.92,148.31 202.75,193.42 25.53,33.07 57.35,59.71 89.85,108.23l658.33 0c-37.09,-70.09 -85.23,-137.69 -129.27,-202.81 -56.52,-83.59 -95.12,-121.88 -150.37,-193.36l-106.59 -120.62c-38.07,-45.54 -199.93,-188.35 -237.11,-217.32l-148.16 -113.27c-106.27,-73.32 -213.96,-143.79 -329.6,-201.29l-154.8 -71.51c-352.11,-146.74 -649.76,-219.79 -1080.3,-219.79 -353.3,0 -728.21,85.02 -1025.53,215.4 -95.24,41.77 -134.81,58.8 -231.08,112.65 -51.04,28.55 -94.36,54.18 -142.76,84.45 -141.39,88.45 -204.71,144.32 -324.3,240.82 -24.15,19.5 -38.27,37.03 -61.53,54.99l-273.2 291.92c-18.61,23.08 -34.36,41.57 -51.5,65.01 -64.21,87.79 -127.68,176.42 -179.7,274.73z"/>
  <path class="fil0" d="M41630.86 16034.64l355.38 0c0.83,-37.16 199.11,-819.04 221.39,-914.67 11.68,18.41 53.28,207.09 58.19,227.28 18.27,75.1 41.43,155.16 56.88,228.59 28.2,134.05 79.69,319.5 112.14,458.8 95.12,0 190.39,-0.54 285.49,0.02l67.37 0 36.03 -182.08c31.71,-159.76 62.7,-314.17 98.03,-472.9l146.65 -709.77c8.63,-43.12 17.04,-79.37 25.31,-120.34 6.26,-31 22.06,-91.57 22.76,-122.89l-401.99 0c-22.2,95.26 -85.84,526.81 -107.43,661.6l-26.25 166.01c-1.91,14.45 -2.61,22.02 -4.21,30.74l-4.49 18.81c-0.38,1.21 -1.27,3.27 -1.59,4.24 -0.33,0.95 -0.88,2.89 -1.68,4.14 -16.94,-72.69 -37.63,-146.86 -52.91,-220.9l-156.83 -664.64 -302.94 0 -215.57 879.72c0,-39.13 -59.08,-395.83 -66.57,-440.28l-51.59 -327.1c-4.65,-27.62 -15.83,-80.18 -15.83,-112.34l-407.82 0c2.4,28.78 12.78,66.59 18.93,97.59l145.62 704.97c53.13,248.02 111.56,565.15 167.53,805.4z"/>
  <path class="fil0" d="M39597.61 16034.64l355.38 0c0.6,-26.77 101.09,-421.36 109.58,-455.54 19.8,-79.69 36.05,-150.25 55.88,-229.58 19.52,-78.1 38.3,-153.91 55.93,-229.55l171.28 685.12c19.67,78.6 38.28,153.78 55.93,229.55 95.12,0 277.82,-0.54 372.92,0.02l162.58 -891.87c15.68,-78.61 31.08,-156.74 49.38,-236.1l96.75 -480.01 -401.99 0c-18.63,80.01 -90.06,549.23 -106.55,662.47l-39.09 223.07 -209.74 -885.54 -302.95 0c-0.62,27.98 -93.18,397.01 -102.41,439.4 -16.59,76.28 -34.45,141.92 -51.38,216.62l-61.77 223.7 -118.23 -767.31c-4.36,-26.48 -15.76,-83.32 -15.76,-112.41l-407.82 0 289.8 1405.55c13.4,67.33 27.05,137.03 42.28,202.41z"/>
  <path class="fil0" d="M43664.11 16034.64l355.39 0c0.83,-37.28 184.43,-760.91 213.68,-887.42 6.72,-29.1 -6.38,-12.66 13.53,-27.25 0.96,43.23 191.74,852.89 221.38,914.67l349.56 0 332.08 -1607.96 -390.34 0c-25.25,0 -20.12,45.63 -29.11,99.06l-134.02 780.66c-0.61,-27.55 -39.48,-181.47 -48.96,-219.03 -19.3,-76.45 -33.26,-145.43 -52.43,-221.39 -18.87,-74.73 -32.72,-143.23 -51.26,-216.73 -8.5,-33.66 -16.27,-71.07 -25.65,-108.35l-25.6 -114.22 -302.95 0c-1.58,18.94 -7.49,35.3 -11.17,52.92l-144.95 612.42c-9.89,39.05 -16.83,73.17 -26.82,113 -5.12,20.42 -10.32,39.62 -13.67,56.24 -5.09,25.21 -3.02,39.29 -18.95,50.96 0,-44.74 -111.48,-725.13 -128.86,-838.25 -3.12,-20.36 -0.71,-47.29 -22.62,-47.29l-390.33 0c0.69,31.08 12.73,66.17 18.97,97.55l313.1 1510.41z"/>
  <path class="fil1" d="M25588.08 13106.58c-34.94,-420.03 -157.02,-835.38 -157.02,-1308.58l-366.41 0 0 6857.02 575.79 0 0 -4292.19c0,-620.54 244.71,-1101.15 538.51,-1450.55 824.68,-980.75 2555.2,-887.81 3202.58,-39.77 309.47,405.4 498.74,911.17 498.74,1595.01l0 4187.5 575.79 0 0 -4239.83c0,-1157.66 872.17,-2198.44 1936.73,-2198.44l366.4 0c1103.16,0 1936.72,1064.76 1936.72,2198.44l0 4239.83 575.78 0 0 -4396.88c0,-2137 -2412.82,-3344.67 -4084.36,-2147.62 -284.52,203.75 -745.71,713.36 -835.96,1100.75 -339.84,-90.74 -60.09,-455.1 -874.28,-1062.43 -1095.35,-817.06 -2622.57,-653.55 -3507.95,396.61l-293.92 438.89c-6.09,9.28 -14.74,22.84 -20.71,31.64 -74.6,109.87 -14.39,30.73 -66.43,90.6z"/>
  <path class="fil1" d="M7791.21 18288.62c-1672.15,0 -3035.94,-1264.72 -3035.94,-2931.25 0,-847.61 100.22,-1330.44 574.96,-1989.89 915.26,-1271.33 2856.76,-1499.28 3969.54,-774.94 724.58,471.66 1221.67,1026.26 1394.71,2007.64 345.15,1957.59 -970.77,3688.44 -2903.27,3688.44zm2983.59 -4920.31c-172.72,-62.52 -174.58,-169.7 -263.79,-311.98 -190.92,-304.45 -596.8,-651.14 -918.21,-861.5 -1969.23,-1288.94 -5274.22,-375.66 -5448.67,2964.64 -21.61,413.55 126.76,1122.98 251.4,1447.48 214.73,559.08 315.7,640.83 650.48,1076.86 479.45,624.44 1569.34,1128.25 2378.79,1128.25 904.02,0 1424.6,-63.59 2198.69,-575.53 332.07,-219.61 670.7,-521.34 890.51,-836.83 24.49,-35.16 80.64,-136.9 98.53,-163.2 109.85,-161.59 -10.45,-89.27 162.27,-151.79 0,296.61 0.45,593.26 -0.02,889.87 -1.29,793.34 -127.39,732.79 575.81,732.79l0 -10102.35c-724.07,0 -575.79,-150.87 -575.79,1046.88l0 3716.41z"/>
  <path class="fil1" d="M49718.58 15252.69c0,-3007.51 3430.51,-3925.81 5143.24,-2212.01 1870.11,1871.27 600.82,5247.94 -2107.3,5247.94 -1718.24,0 -3035.94,-1316.81 -3035.94,-3035.93zm-575.79 3402.33l575.79 0 0 -1570.31c282.28,189.03 223.74,549.85 1109.5,1141.27 2260.48,1509.31 5485.81,-4.75 5485.81,-2763.92 0,-1228.01 -182.01,-1988.31 -1007.4,-2813.7 -1458.03,-1458.05 -3988.26,-1350.31 -5310.71,369.03 -145.47,189.09 -77.64,217.27 -277.2,350.92l1.8 -4294.01c8.68,-526.86 73.6,-469.28 -577.59,-469.28l0 10050z"/>
  <path class="fil1" d="M15066.98 15880.81c0,792.13 425.02,1638.81 823.12,2055.8 983.28,1029.96 2716.29,1170.34 3896.41,360.58 198.33,-136.09 395.38,-309.67 552,-494.87 75.53,-89.29 164.74,-212.5 224.77,-298.65l209.18 -314.28c0,1415.91 96.38,2014.85 -522.53,2879.83 -840.35,1174.45 -2644.43,1161.65 -3984,893.89l-989.57 -266.68c-42.17,181.01 -84.67,372.61 -157.02,523.44 604.54,319.88 1826.56,471.09 2669.54,471.09 742.68,0 1675.45,-251.35 2207.1,-619.46 1142.78,-791.28 1404.6,-1757.87 1404.6,-3411l0 -5862.5 -628.12 0 0 3925.77c0,682.34 -344.2,1364.3 -692.47,1715.36 -782.85,789.11 -1200.99,797.14 -2186.43,797.14 -1178.33,0 -2250.79,-1189.32 -2250.79,-2512.5l0 -3925.77 -575.79 0 0 4082.81z"/>
  <path class="fil2" d="M42181.06 18288.62c-1085.58,0 -1849.83,-495.93 -2416.42,-1195.29 -803.03,-991.19 -830.81,-2878 275.6,-4033.84 1762.31,-1840.98 5176.78,-664.53 5176.78,2140.84 0,1755.35 -1294.95,3088.29 -3035.96,3088.29zm-157.02 523.44c1402.86,0 2470.85,-480.44 3172.83,-1538.1 129.96,-195.78 220.5,-345.25 313.02,-576.84 551.73,-1381.2 308.16,-2969.54 -724.58,-3996.33 -2174.44,-2161.87 -6110.88,-916.64 -6194.04,2506.19 -47.7,1962.91 1531.6,3605.08 3432.77,3605.08z"/>
  <path class="fil1" d="M12949.38 20263.54c8.89,33.28 127.45,135.75 158.44,169.29l265.64 280.57c36.14,36.16 76.16,71.85 109.15,109.33l913.86 950.53c21.43,21.67 28.49,36.4 50.72,58.53l220.33 223.92 98.87 -848.14c36.55,-123.66 208.45,-29.91 311.45,0.43 261.77,111.21 585.61,199.33 638.04,199.33 78.73,0 91.28,-66.24 111.94,-128.39 16.71,-50.23 99.07,-284.06 86.29,-330.29 -8.93,-32.36 -28.68,-54.22 -58.01,-66.42l-544.54 -176.33c-67.12,-19.76 -117.23,-37.01 -181.81,-58.48 -107.58,-35.79 -141.15,-30.77 -141.15,-128.31 0,-25.82 155.67,-270.55 188.87,-328.1 71.64,-124.21 142.94,-250.83 210.79,-379.16l-608.47 112.35c-504.84,95.06 -1024.91,182.21 -1524,281.68 -99.59,19.86 -208.24,34.77 -306.41,57.66z"/>
  <path class="fil2" d="M11682.62 19877.42c0,55.83 5.3,88.42 82.63,114.02 45,14.89 84.27,25.43 127.57,39.9 46.77,15.62 217.65,79.21 263.02,79.21 52.33,0 104.5,-63.52 90.84,-119.46 -21.48,-87.99 -166.63,-105.8 -290.14,-147.36 -20.84,-7.01 -165.76,-53.73 -171.99,-53.73 -48.81,0 -101.93,36.57 -101.93,87.42z"/>
  <path class="fil2" d="M13065.87 19637.01c51.64,0 82.38,-31.94 97.64,-77.15 15.36,-45.54 26.51,-84.46 39.76,-127.77 13.96,-45.65 81.01,-231.29 81.01,-261.34 0,-50.3 -36.67,-102 -94.65,-102 -109.35,0 -116.74,128.56 -166.52,277.77 -10.21,30.61 -16.16,49.31 -25.83,83.42 -9.38,33.07 -21.03,56.15 -28.22,88.91 -12.9,58.77 28.95,118.16 96.81,118.16z"/>
  <path class="fil2" d="M12403.37 21298.04c0,60.93 49.62,110.42 112.34,98.54 91.87,-17.41 108.14,-159.75 150.68,-287.02 12.98,-38.85 50.03,-145.54 50.03,-183.07 0,-67.59 -57.65,-105.99 -111.5,-96.45 -71.78,12.72 -78.82,67.21 -98.73,126.49 -16.39,48.81 -102.82,309.66 -102.82,341.51z"/>
  <path class="fil2" d="M11748.15 20744.36c0,39.57 46.26,110.83 119.8,98.32 25.33,-4.31 128.61,-62.33 156.85,-76.46 26.38,-13.2 49.26,-24.53 77.74,-38.77 29.52,-14.76 46.89,-27.44 75.09,-41.42 47.83,-23.73 116.53,-46.36 116.53,-116.52 0,-63.16 -49.08,-101.99 -109.2,-101.99 -20.58,0 -389.18,186.48 -409.17,209.8 -8.1,9.45 -27.64,52.76 -27.64,67.04z"/>
  <path class="fil2" d="M12235.92 19229.03c0,74.69 103.95,236.88 148.04,325.41 25.74,51.69 41.3,110.29 100.08,126.31 58.59,15.98 123.17,-17.52 123.17,-109.31 0,-25.04 -149.7,-306.74 -169.77,-347.36 -44.3,-89.68 -116.5,-106.77 -173.83,-54.76 -13.48,12.23 -27.69,35.85 -27.69,59.71z"/>
 </g>
</svg>
